HIERARCHY
ROOT Hips
{
	OFFSET 0.00000 0.00000 0.00000
	CHANNELS 6 Xposition Yposition Zposition Zrotation Yrotation Xrotation 
	JOINT LHipJoint
	{
		OFFSET 0 0 0
		CHANNELS 3 Zrotation Yrotation Xrotation
		JOINT LeftUpLeg
		{
			OFFSET 1.60223 -1.58443 0.78595
			CHANNELS 3 Zrotation Yrotation Xrotation
			JOINT LeftLeg
			{
				OFFSET 2.21690 -6.09089 0.00000
				CHANNELS 3 Zrotation Yrotation Xrotation
				JOINT LeftFoot
				{
					OFFSET 2.34805 -6.45122 0.00000
					CHANNELS 3 Zrotation Yrotation Xrotation
					JOINT LeftToeBase
					{
						OFFSET 0.35452 -0.97402 1.38549
						CHANNELS 3 Zrotation Yrotation Xrotation
						End Site
						{
							OFFSET 0.00000 -0.00000 0.82816
						}
					}
				}
			}
		}
	}
	JOINT RHipJoint
	{
		OFFSET 0 0 0
		CHANNELS 3 Zrotation Yrotation Xrotation
		JOINT RightUpLeg
		{
			OFFSET -1.56524 -1.58443 0.78595
			CHANNELS 3 Zrotation Yrotation Xrotation
			JOINT RightLeg
			{
				OFFSET -2.15558 -5.92241 0.00000
				CHANNELS 3 Zrotation Yrotation Xrotation
				JOINT RightFoot
				{
					OFFSET -2.35077 -6.45870 0.00000
					CHANNELS 3 Zrotation Yrotation Xrotation
					JOINT RightToeBase
					{
						OFFSET -0.26910 -0.73935 1.33295
						CHANNELS 3 Zrotation Yrotation Xrotation
						End Site
						{
							OFFSET -0.00000 -0.00000 0.75962
						}
					}
				}
			}
		}
	}
	JOINT LowerBack
	{
		OFFSET 0 0 0
		CHANNELS 3 Zrotation Yrotation Xrotation
		JOINT Spine
		{
			OFFSET -0.05489 1.97104 -0.02993
			CHANNELS 3 Zrotation Yrotation Xrotation
			JOINT Spine1
			{
				OFFSET -0.00702 1.94230 0.13626
				CHANNELS 3 Zrotation Yrotation Xrotation
				JOINT Neck
				{
					OFFSET 0 0 0
					CHANNELS 3 Zrotation Yrotation Xrotation
					JOINT Neck1
					{
						OFFSET -0.07858 1.62869 -0.02510
						CHANNELS 3 Zrotation Yrotation Xrotation
						JOINT Head
						{
							OFFSET 0.13978 1.59213 -0.29859
							CHANNELS 3 Zrotation Yrotation Xrotation
							End Site
							{
								OFFSET 0.05353 1.64420 -0.10000
							}
						}
					}
				}
				JOINT LeftShoulder
				{
					OFFSET 0 0 0
					CHANNELS 3 Zrotation Yrotation Xrotation
					JOINT LeftArm
					{
						OFFSET 3.48263 1.15278 0.52941
						CHANNELS 3 Zrotation Yrotation Xrotation
						JOINT LeftForeArm
						{
							OFFSET 4.59207 -0.00000 -0.00000
							CHANNELS 3 Zrotation Yrotation Xrotation
							JOINT LeftHand
							{
								OFFSET 2.98109 -0.00000 -0.00000
								CHANNELS 3 Zrotation Yrotation Xrotation
								JOINT LeftFingerBase
								{
									OFFSET 0 0 0
									CHANNELS 3 Zrotation Yrotation Xrotation
									JOINT LeftHandIndex1
									{
										OFFSET 0.48020 -0.00000 -0.00000
										CHANNELS 3 Zrotation Yrotation Xrotation
										End Site
										{
											OFFSET 0.38715 -0.00000 -0.00000
										}
									}
								}
								JOINT LThumb
								{
									OFFSET 0 0 0
									CHANNELS 3 Zrotation Yrotation Xrotation
									End Site
									{
										OFFSET 0.39306 -0.00000 0.39306
									}
								}
							}
						}
					}
				}
				JOINT RightShoulder
				{
					OFFSET 0 0 0
					CHANNELS 3 Zrotation Yrotation Xrotation
					JOINT RightArm
					{
						OFFSET -3.52496 1.12722 0.24548
						CHANNELS 3 Zrotation Yrotation Xrotation
						JOINT RightForeArm
						{
							OFFSET -4.76508 -0.00000 -0.00000
							CHANNELS 3 Zrotation Yrotation Xrotation
							JOINT RightHand
							{
								OFFSET -2.78902 -0.00000 -0.00000
								CHANNELS 3 Zrotation Yrotation Xrotation
								JOINT RightFingerBase
								{
									OFFSET 0 0 0
									CHANNELS 3 Zrotation Yrotation Xrotation
									JOINT RightHandIndex1
									{
										OFFSET -0.72130 -0.00000 -0.00000
										CHANNELS 3 Zrotation Yrotation Xrotation
										End Site
										{
											OFFSET -0.58153 -0.00000 -0.00000
										}
									}
								}
								JOINT RThumb
								{
									OFFSET 0 0 0
									CHANNELS 3 Zrotation Yrotation Xrotation
									End Site
									{
										OFFSET -0.59041 -0.00000 0.59041
									}
								}
							}
						}
					}
				}
			}
		}
	}
}
MOTION
Frames: 14
Frame Time: 0.00947867
0.00 0.00 0.00 0 0 0 0 0 0 -21 0 0 0 0 0 0 0 0 0 0 0 0 0 0 21 0 0 0 0 0 0 0 0 0 0 0 0 0 0 0 0 0 0 0 0 0 0 -16 0 0 21 0 0 11 0 0 0 -8 0 0 0 0 0 0 0 0 0 0 0 0 0 0 0 0 0 0 0 0 8 0 0 0 0 0 0 0 0 0 0 0 0 0 0 0 0 0
0.00 0.00 0.00 10.6477 -80.6328 -7.6148 0.0000 0.0000 0.0000 -20.8358 -6.3359 -12.1700 2.7073 10.2054 29.6445 1.7660 -8.1556 -23.8155 0.2453 3.1874 8.8008 0.0000 0.0000 0.0000 15.5412 0.4410 -8.9344 -1.3246 -7.2887 20.5736 -1.1814 -6.6452 -23.9322 -2.3265 9.5155 -27.4215 -2.7425 6.1381 1.7700 -0.9091 8.0393 -3.0548 0.1158 4.0605 -4.3887 1.3828 15.1800 -1.1728 1.2262 20.1769 4.8993 0.5399 10.1106 1.7341 0.0000 0.0000 0.0000 -96.8892 6.0123 31.9805 20.3336 -31.0422 -5.7024 -0.0000 -0.0000 14.1981 22.3111 27.3983 10.6935 -7.1250 0.0000 -0.0000 -9.1254 59.0073 -3.1401 0.0000 0.0000 0.0000 96.7950 -12.7568 -2.3424 -17.0262 26.8923 -4.0992 0.0000 0.0000 1.7618 4.7096 33.6565 2.6142 7.1250 -0.0000 -0.0000 20.2834 1.9895 22.4094
0.00 0.00 0.00 6.2271 -73.8769 -2.5976 0.0000 0.0000 0.0000 -19.1757 -8.4762 -13.0887 2.7788 10.3280 30.0456 1.3886 -11.6602 -21.4107 0.0414 1.3129 3.6101 0.0000 0.0000 0.0000 17.3252 -2.4110 -8.1657 -1.1797 -6.8934 19.3999 -1.1707 -9.6985 -26.0708 -1.7302 8.2800 -23.5678 -2.5753 7.7453 -0.3975 -0.1221 10.2848 -2.8562 1.0063 5.1880 -3.1527 -0.1556 15.8329 -2.8845 1.7224 21.0819 6.1387 1.1101 10.5432 2.2130 -0.0000 -0.0000 0.0000 -99.4501 7.7796 0.3801 18.5330 -28.8342 -4.8035 -0.0000 -0.0000 16.6713 21.8640 32.6224 12.2063 -7.1250 0.0000 -0.0000 -13.0307 64.1200 -6.0866 -0.0000 -0.0000 0.0000 97.9112 -9.2988 -5.0138 -18.8302 29.2072 -4.9477 0.0000 -0.0000 -3.5532 -3.1908 42.3850 -2.1522 7.1250 -0.0000 -0.0000 16.5718 10.9210 20.1880
0.00 0.00 0.00 41.0860 -85.6517 -38.8460 0.0000 0.0000 0.0000 -19.3340 0.8725 -10.5543 3.3465 11.2359 33.0797 2.3659 -8.8544 -27.6668 0.0134 -0.7461 -2.0505 0.0000 0.0000 0.0000 17.3568 3.7356 -6.3619 -1.9686 -8.8004 25.1729 -1.7143 -4.7453 -26.8189 -2.1753 9.2220 -26.4922 4.6165 1.7151 1.7846 -7.3349 2.0116 -4.0695 -10.5713 0.5834 -4.8503 -14.6406 -5.4047 -2.2775 20.9352 -9.2783 10.9411 8.6466 -4.3926 5.2712 -0.0000 -0.0000 0.0000 -86.5257 -0.8043 -1.0662 15.0897 -24.2710 -3.2627 -0.0000 -0.0000 32.0070 24.9553 23.1015 10.3476 -7.1250 0.0000 -0.0000 -4.4561 55.1213 -1.1091 -0.0000 -0.0000 0.0000 101.6306 -10.4874 46.9396 -44.9493 50.7436 -22.1995 0.0000 -0.0000 -13.3116 2.2903 39.2748 1.4503 7.1250 -0.0000 -0.0000 19.0828 7.4517 22.6091
0.00 0.00 0.00 1.8362 -85.5410 0.2017 0.0000 0.0000 0.0000 -13.9481 -4.1396 -20.1447 7.2498 15.5386 49.8127 1.6543 -2.6389 -23.6197 0.0449 1.3682 3.7626 0.0000 0.0000 0.0000 22.4660 1.5859 -7.4378 -2.0566 -8.9831 25.7424 -1.8200 -2.8520 -26.6433 -2.2118 9.2941 -26.7196 5.9296 0.3412 4.2729 -6.5409 0.3731 -4.0745 -10.4581 -0.3509 -6.6530 -12.8483 -4.7763 -3.8204 19.3794 -8.0604 10.7211 7.8395 -3.6922 5.1121 -0.0000 0.0000 0.0000 -78.8526 -5.1078 -13.7919 14.0253 -22.7708 -2.8379 -0.0000 -0.0000 41.8873 17.9313 25.8180 8.0219 -7.1250 0.0000 -0.0000 -12.9864 56.4589 -3.6921 -0.0000 0.0000 0.0000 100.3490 -10.8591 50.4087 -72.7766 58.8489 -45.1418 0.0000 -0.0000 -5.3794 -6.1067 45.5771 -4.3695 7.1250 -0.0000 -0.0000 15.5104 14.3313 19.4899
0.00 0.00 0.00 15.4552 -96.9208 -11.3238 0.0000 0.0000 0.0000 -12.5938 -9.7467 -25.1305 5.5531 13.9808 43.1605 1.8179 -10.5734 -24.2449 0.0143 -0.7732 -2.1251 0.0000 0.0000 0.0000 23.9100 -1.8127 -7.1267 -1.3456 -7.3442 20.7391 -1.2380 10.1268 -20.0744 -1.8393 8.5229 -24.3140 -0.9152 1.8496 2.4255 -1.6824 2.2238 -5.4118 -1.4264 1.0534 -6.9643 -8.1323 -2.8162 -6.3540 13.4607 -4.8968 12.2077 5.2602 -2.0623 5.2152 -0.0000 -0.0000 0.0000 -55.7160 -24.7200 -16.3830 13.4533 -21.9478 -2.6203 -0.0000 -0.0000 42.3557 1.8333 34.1262 1.0288 -7.1250 0.0000 -0.0000 -35.8172 60.3906 -14.5256 -0.0000 -0.0000 0.0000 94.6549 -7.0215 48.5270 -95.2007 59.8976 -64.5024 0.0000 -0.0000 -0.1945 -8.6569 45.8822 -6.2378 7.1250 -0.0000 -0.0000 14.3701 14.9912 18.0880
0.00 0.00 0.00 5.8459 -108.7540 -2.5749 0.0000 0.0000 0.0000 -15.9770 -4.2279 -19.0606 4.7441 13.0897 39.7051 2.4403 -4.3802 -28.5460 0.0540 1.4998 4.1253 0.0000 0.0000 0.0000 20.5469 0.7805 -3.8546 -1.3088 -7.2468 20.4487 -0.7833 14.6457 -17.5982 -2.1378 9.1474 -26.2574 -3.0499 2.8570 1.0480 0.4593 3.5240 -6.8182 1.9104 1.8718 -7.9493 -7.3784 -0.5148 -6.0649 12.9373 -2.1161 14.9464 5.1998 -0.7003 5.6646 0.0000 0.0000 0.0000 -38.2758 -30.3193 -17.7865 15.3237 -24.5952 -3.3595 -0.0000 -0.0000 32.3981 8.0707 27.8956 3.7956 -7.1250 0.0000 -0.0000 -24.2579 56.4150 -7.0806 0.0000 0.0000 0.0000 89.5696 -5.5355 53.5110 -112.8343 57.9352 -79.6380 0.0000 0.0000 1.0562 -8.8451 42.0984 -5.9559 7.1250 -0.0000 -0.0000 13.7942 11.3920 16.6863
0.00 0.00 0.00 2.4871 -120.3580 -3.3289 0.0000 0.0000 0.0000 -22.7246 0.4729 -10.9283 3.6943 11.7421 34.8256 2.8163 2.1445 -32.5625 0.8655 5.9322 16.5879 0.0000 0.0000 0.0000 14.8451 7.4607 -9.6721 -4.1665 -12.3787 37.0851 0.0021 14.0073 -9.8075 -4.6874 13.0228 -39.4540 -2.2337 4.1382 1.5797 2.5277 5.4357 -5.3734 3.4681 2.8265 -6.9566 -8.3342 0.8924 -5.6108 12.3042 -0.1497 16.3658 5.3108 0.1425 5.8026 0.0000 0.0000 0.0000 -33.6139 -42.1774 -21.9779 23.2126 -34.3205 -7.2578 -0.0000 -0.0000 21.5325 1.7496 30.9347 0.8996 -7.1250 0.0000 -0.0000 -32.8310 57.7479 -11.0272 0.0000 0.0000 0.0000 90.4680 15.9553 77.2779 -115.2538 57.4475 -81.6830 0.0000 0.0000 0.2505 -2.5064 29.6116 -1.2390 7.1250 -0.0000 -0.0000 16.3831 -1.3689 16.6895
0.00 0.00 0.00 -0.1497 -111.4060 -2.8577 0.0000 0.0000 0.0000 -24.8754 4.5398 -15.9593 4.3481 12.6097 37.9245 2.1454 -6.7060 -26.4044 0.8512 5.8840 16.4482 0.0000 0.0000 0.0000 14.1606 -3.1203 -21.0418 -4.7579 -13.1059 39.7662 -1.1487 -7.3987 -24.1826 -2.2605 9.3889 -27.0195 0.1190 5.3506 8.8483 0.8218 7.2384 -3.3341 -0.3657 3.5336 -8.5780 -13.7133 -3.8153 -3.8622 14.0960 -5.8019 10.4389 6.3737 -2.7939 4.5297 0.0000 0.0000 0.0000 -85.6352 -45.5053 18.2006 87.7668 -59.9811 -58.0662 -0.0000 -0.0000 17.8701 20.1835 28.0469 9.8063 -7.1250 0.0000 -0.0000 -11.8122 59.1694 -4.1250 0.0000 0.0000 0.0000 87.2893 -5.9227 74.3199 -49.7157 52.8802 -25.9473 0.0000 0.0000 5.0825 -5.8042 50.9199 -4.5118 7.1250 -0.0000 -0.0000 16.3683 19.3704 21.5728
0.00 0.00 0.00 -14.0535 -107.2700 10.1507 0.0000 0.0000 0.0000 -29.4247 4.7211 -16.5351 4.2244 12.4531 37.3544 1.8260 -9.6487 -24.2476 1.0332 6.4652 18.1404 0.0000 0.0000 0.0000 9.2877 -5.3803 -23.1771 -7.4481 -15.6979 50.5495 -1.1290 -7.0196 -23.7590 -2.1001 9.0715 -26.0192 -1.6405 4.3073 10.7390 -1.7866 5.3531 -2.8848 -1.9693 2.6134 -9.0834 -13.4597 -4.3738 -4.2171 15.1254 -6.6492 10.0821 6.6001 -3.1462 4.6327 0.0000 0.0000 0.0000 -89.9120 -38.0400 26.2779 109.5867 -58.4996 -76.8771 -0.0000 -0.0000 17.2493 26.7506 25.5530 12.2664 -7.1250 0.0000 -0.0000 -3.3702 58.1133 -1.0821 0.0000 0.0000 0.0000 87.1137 -12.2818 64.3675 -40.4669 48.3441 -18.7873 0.0000 0.0000 7.8016 -9.2313 59.5698 -7.9773 7.1250 -0.0000 -0.0000 16.7701 27.9904 23.3264
0.00 0.00 0.00 -39.0209 -104.0200 34.4998 0.0000 0.0000 0.0000 -33.8632 5.7234 -16.4699 3.8058 11.8973 35.3698 1.1599 -14.3491 -20.3446 0.8303 5.8132 16.2434 0.0000 0.0000 0.0000 4.7560 -6.1208 -20.9417 -12.0532 -18.4130 66.1573 -0.4539 -5.4255 -15.8731 -1.6765 8.1569 -23.1917 -4.1826 1.4502 11.2642 -5.8542 0.6625 -1.9950 -4.0193 0.2804 -8.4782 -11.3794 -3.5881 -4.8572 18.3014 -6.1456 9.7330 7.3212 -2.7120 4.5932 -0.0000 -0.0000 0.0000 -85.0360 -22.0625 31.9714 131.9464 -52.1797 -95.3719 -0.0000 -0.0000 17.9074 26.6875 26.4762 12.6316 -7.1250 0.0000 -0.0000 -3.8028 59.0769 -1.3092 -0.0000 -0.0000 0.0000 83.5925 -20.6707 52.0457 -40.5566 48.3962 -18.8544 0.0000 0.0000 11.1684 -11.4944 70.0087 -10.8186 7.1250 -0.0000 -0.0000 19.4538 37.8167 28.0450
0.00 0.00 0.00 -14.9364 -112.7980 12.9272 0.0000 0.0000 0.0000 -28.8022 3.7811 -17.2887 3.3032 11.1704 32.8567 1.7324 -3.1732 -24.0794 0.6980 5.3406 14.8826 0.0000 0.0000 0.0000 11.0502 4.3580 -6.1860 -8.7854 -16.6676 55.3450 0.4210 -12.5675 1.0116 -0.2195 3.0158 -8.3228 -4.0093 -1.2141 6.7003 -6.5714 -2.6621 -2.3509 -4.3273 -1.4175 -6.3942 -4.4276 2.6076 -5.9257 17.4225 1.2987 12.5171 6.2675 1.2265 4.5148 0.0000 -0.0000 0.0000 -76.3285 15.3230 30.6935 142.4844 -46.5271 -103.3868 -0.0000 -0.0000 20.4117 24.0732 26.8162 11.3951 -7.1250 0.0000 -0.0000 -6.8883 58.8183 -2.3337 0.0000 -0.0000 0.0000 68.3989 -14.4729 50.1920 -53.5551 54.3324 -29.0385 0.0000 0.0000 8.7098 -16.2162 64.5726 -14.7169 7.1250 -0.0000 -0.0000 16.0489 33.7091 22.7396
0.00 0.00 0.00 1.0711 -131.2330 1.4163 0.0000 0.0000 0.0000 -17.5964 8.7882 -26.6993 5.0143 13.3998 40.8842 2.1725 2.8416 -28.9830 0.0756 1.7742 4.8821 0.0000 0.0000 0.0000 13.7835 1.5679 -4.3964 -3.8954 -12.0199 35.8023 0.1755 7.5150 1.3835 -3.0463 10.7696 -31.5068 -3.2549 -0.3115 3.9853 -3.9688 -0.9527 -2.6984 -2.2102 -0.4978 -5.0592 0.4806 8.4851 -3.6370 11.0080 10.1584 8.7436 3.9041 5.3379 2.8978 -0.0000 0.0000 0.0000 -79.7125 33.0941 16.2891 135.9895 -50.2744 -98.5251 -0.0000 -0.0000 32.8413 5.5013 47.7746 4.0794 -7.1250 0.0000 -0.0000 -54.8984 71.0686 -37.4056 -0.0000 0.0000 0.0000 73.8653 2.4118 49.5480 -56.3959 55.2705 -31.3601 0.0000 0.0000 8.5741 -24.0791 70.9746 -22.9027 7.1250 -0.0000 -0.0000 16.9639 40.6198 24.3591
0.00 0.00 0.00 22.0968 -134.8260 -9.9530 0.0000 0.0000 0.0000 3.3147 14.7031 -45.4173 10.1344 17.4847 59.9365 1.4764 -4.3527 -21.9654 0.3791 -3.9544 -10.9485 0.0000 0.0000 0.0000 33.1835 -8.7836 -6.0842 -1.8911 -8.6354 24.6614 0.2700 10.4150 -1.4615 -2.6630 10.1285 -29.3939 -1.2012 1.1148 3.1899 3.9626 1.4941 -3.8564 4.7004 0.8331 -5.9464 -1.0986 7.7095 -3.9646 5.9515 9.8164 8.4121 2.4822 5.0137 3.0292 0.0000 -0.0000 0.0000 -78.6981 32.9954 4.1223 121.8331 -55.8014 -87.1796 -0.0000 -0.0000 33.7055 10.4498 51.0791 8.1657 -7.1250 0.0000 -0.0000 -60.7689 74.4577 -45.9348 0.0000 -0.0000 0.0000 88.5747 6.8272 63.2829 -41.7444 49.0701 -19.7472 0.0000 0.0000 9.7458 -14.8958 73.8757 -14.3344 7.1250 -0.0000 -0.0000 20.4405 41.6300 29.5950
